<svg width="260" height="308" viewBox="0 0 260 308" fill="none" xmlns="http://www.w3.org/2000/svg">
<path d="M344.205 224.902L134.808 110.622L184.089 83.6373L336.182 166.683L349.666 141.317L184.089 50.7834L104.605 94.1614L55.0532 67.2441L184.089 -3.0511L336.182 79.9269L349.666 54.5613L194.472 -30.3731C191.282 -32.0972 187.714 -33 184.089 -33C180.464 -33 176.897 -32.0972 173.707 -30.3731L24.0414 51.3906C21.1825 52.9335 18.7941 55.2218 17.1294 58.0129C15.4647 60.8039 14.5857 63.9937 14.5857 67.2441C14.5857 70.4945 15.4647 73.6843 17.1294 76.4753C18.7941 79.2664 21.1825 81.5547 24.0414 83.0976L233.371 197.378L184.089 224.363L32.064 141.317L18.1761 166.683L184.089 257.082L263.574 213.704L312.923 240.688L184.089 311.051L32.064 228.073L18.1761 253.506L173.707 338.373C176.897 340.097 180.464 341 184.089 341C187.714 341 191.282 340.097 194.472 338.373L344.205 256.677C347.044 255.109 349.41 252.808 351.058 250.014C352.706 247.219 353.576 244.034 353.576 240.79C353.576 237.545 352.706 234.36 351.058 231.566C349.41 228.771 347.044 226.47 344.205 224.902Z" fill="url(#paint0_linear_61_3917)"/>
<path d="M365 66.3413C365 82.4787 351.927 95.5607 335.8 95.5607C319.673 95.5607 306.6 82.4787 306.6 66.3413C306.6 50.2039 319.673 37.1219 335.8 37.1219C351.927 37.1219 365 50.2039 365 66.3413Z" fill="url(#paint1_linear_61_3917)"/>
<path d="M58.4 241.658C58.4 257.795 45.3267 270.877 29.2 270.877C13.0733 270.877 0 257.795 0 241.658C0 225.52 13.0733 212.438 29.2 212.438C45.3267 212.438 58.4 225.52 58.4 241.658Z" fill="url(#paint2_linear_61_3917)"/>
<defs>
<linearGradient id="paint0_linear_61_3917" x1="182.5" y1="-33" x2="97.5" y2="254.5" gradientUnits="userSpaceOnUse">
<stop stop-color="#83F1AA"/>
<stop offset="1" stop-color="#E8ED8A" stop-opacity="0"/>
</linearGradient>
<linearGradient id="paint1_linear_61_3917" x1="182.5" y1="-33" x2="97.5" y2="254.5" gradientUnits="userSpaceOnUse">
<stop stop-color="#83F1AA"/>
<stop offset="1" stop-color="#E8ED8A" stop-opacity="0"/>
</linearGradient>
<linearGradient id="paint2_linear_61_3917" x1="182.5" y1="-33" x2="97.5" y2="254.5" gradientUnits="userSpaceOnUse">
<stop stop-color="#83F1AA"/>
<stop offset="1" stop-color="#E8ED8A" stop-opacity="0"/>
</linearGradient>
</defs>
</svg>
